# ProBuilder 4.4.0
# https://unity3d.com/unity/features/worldbuilding/probuilder
# 11.01.2022 21:09:53

mtllib ./Arch_Chare.mtl
o Arch_Chare

g Arch (1)
v -1.3875 -2.121763 -0.2850001
v -1.380785 -1.865317 -0.2850001
v -1.3875 -2.121763 0.2849999
v -1.380785 -1.865317 0.2849999
v -0.7316756 -1.899335 -0.2850001
v -0.7375002 -2.121763 -0.2850001
v -0.7316756 -1.899335 0.2849999
v -0.7375002 -2.121763 0.2849999
v -1.360658 -1.609573 -0.2850001
v -1.360658 -1.609573 0.2849999
v -0.7142181 -1.677517 -0.2850001
v -0.7142181 -1.677517 0.2849999
v -1.327173 -1.355234 -0.2850001
v -1.327173 -1.355234 0.2849999
v -0.6851759 -1.456916 -0.2850001
v -0.6851759 -1.456916 0.2849999
v -1.280424 -1.102995 -0.2850001
v -1.280424 -1.102995 0.2849999
v -0.6446276 -1.238138 -0.2850001
v -0.6446276 -1.238138 0.2849999
v -1.220537 -0.8535494 -0.2850001
v -1.220537 -0.8535494 0.2849999
v -0.5926847 -1.021782 -0.2850001
v -0.5926847 -1.021782 0.2849999
v -1.147677 -0.6075795 -0.2850001
v -1.147677 -0.6075795 0.2849999
v -0.5294905 -0.8084404 -0.2850001
v -0.5294905 -0.8084404 0.2849999
v -1.062044 -0.3657597 -0.2850001
v -1.062044 -0.3657597 0.2849999
v -0.4552169 -0.598699 -0.2850001
v -0.4552169 -0.598699 0.2849999
v -0.9638729 -0.1287532 -0.2850001
v -0.9638729 -0.1287532 0.2849999
v -0.3700683 -0.393132 -0.2850001
v -0.3700683 -0.393132 0.2849999
v -0.8534322 0.1027906 -0.2850001
v -0.8534322 0.1027906 0.2849999
v -0.2742779 -0.1923032 -0.2850001
v -0.2742779 -0.1923032 0.2849999
v -0.7310247 0.3282373 -0.2850001
v -0.7310247 0.3282373 0.2849999
v -0.168108 0.003237247 -0.2850001
v -0.168108 0.003237247 0.2849999
v -0.5969858 0.5469687 -0.2850001
v -0.5969858 0.5469687 0.2849999
v -0.05185008 0.1929531 -0.2850001
v -0.05185008 0.1929531 0.2849999
v -0.4516835 0.7583849 -0.2850001
v -0.4516835 0.7583849 0.2849999
v 0.0741775 0.3763247 -0.2850001
v 0.0741775 0.3763247 0.2849999
v -0.2955153 0.9619071 -0.2850001
v -0.2955153 0.9619071 0.2849999
v 0.2096295 0.5528488 -0.2850001
v 0.2096295 0.5528488 0.2849999
v -0.1289098 1.156977 -0.2850001
v -0.1289098 1.156977 0.2849999
v 0.3541343 0.7220423 -0.2850001
v 0.3541343 0.7220423 0.2849999
v 0.04767656 1.34306 -0.2850001
v 0.04767656 1.34306 0.2849999
v 0.5072961 0.883441 -0.2850001
v 0.5072961 0.883441 0.2849999
v 0.2337599 1.519647 -0.2850001
v 0.2337599 1.519647 0.2849999
v 0.668695 1.036603 -0.2850001
v 0.668695 1.036603 0.2849999
v 0.4288297 1.686252 -0.2850001
v 0.4288297 1.686252 0.2849999
v 0.837888 1.181108 -0.2850001
v 0.837888 1.181108 0.2849999
v 0.6323519 1.842421 -0.2850001
v 0.6323519 1.842421 0.2849999
v 1.014412 1.31656 -0.2850001
v 1.014412 1.31656 0.2849999
v 0.8437684 1.987723 -0.2850001
v 0.8437684 1.987723 0.2849999
v 1.197784 1.442587 -0.2850001
v 1.197784 1.442587 0.2849999
v 1.0625 2.121762 -0.2850001
v 1.0625 2.121762 0.2849999
v 1.3875 1.558846 -0.2850001
v 1.3875 1.558846 0.2849999

vt -0.2850001 -2.157356
vt -0.2850001 -1.900822
vt 0.2849999 -2.157356
vt 0.2849999 -1.900822
vt 0.2850001 -1.917837
vt 0.2850001 -2.140342
vt -0.2849999 -1.917837
vt -0.2849999 -2.140342
vt -1.3875 0.2849999
vt -0.7375002 0.2849999
vt -1.3875 -0.2850001
vt -0.7375002 -0.2850001
vt -0.2850001 -1.967901
vt -0.2850001 -1.711367
vt 0.2849999 -1.967901
vt 0.2849999 -1.711367
vt 0.2850001 -1.728383
vt 0.2850001 -1.950887
vt -0.2849999 -1.728383
vt -0.2849999 -1.950887
vt -0.2850001 -1.773405
vt -0.2850001 -1.516871
vt 0.2849999 -1.773405
vt 0.2849999 -1.516871
vt 0.2850001 -1.533885
vt 0.2850001 -1.756389
vt -0.2849999 -1.533885
vt -0.2849999 -1.756389
vt -0.2850001 -1.574398
vt -0.2850001 -1.317864
vt 0.2849999 -1.574398
vt 0.2849999 -1.317864
vt 0.2850001 -1.33488
vt 0.2850001 -1.557384
vt -0.2849999 -1.33488
vt -0.2849999 -1.557384
vt -0.2850001 -1.371429
vt -0.2850001 -1.114895
vt 0.2849999 -1.371429
vt 0.2849999 -1.114895
vt 0.2850001 -1.13191
vt 0.2850001 -1.354414
vt -0.2849999 -1.13191
vt -0.2849999 -1.354414
vt -0.2850001 -1.16505
vt -0.2850001 -0.9085161
vt 0.2849999 -1.16505
vt 0.2849999 -0.9085161
vt 0.2850001 -0.9255317
vt 0.2850001 -1.148036
vt -0.2849999 -0.9255317
vt -0.2849999 -1.148036
vt -0.2850001 -0.9558336
vt -0.2850001 -0.6992993
vt 0.2849999 -0.9558336
vt 0.2849999 -0.6992993
vt 0.2850001 -0.7163132
vt 0.2850001 -0.9388173
vt -0.2849999 -0.7163132
vt -0.2849999 -0.9388173
vt -0.2850001 -0.7443444
vt -0.2850001 -0.4878103
vt 0.2849999 -0.7443444
vt 0.2849999 -0.4878103
vt 0.2850001 -0.5048255
vt 0.2850001 -0.7273296
vt -0.2849999 -0.5048255
vt -0.2849999 -0.7273296
vt -0.2850001 -0.5311688
vt -0.2850001 -0.2746348
vt 0.2849999 -0.5311688
vt 0.2849999 -0.2746348
vt 0.2850001 -0.2916497
vt 0.2850001 -0.5141537
vt -0.2849999 -0.2916497
vt -0.2849999 -0.5141537
vt -0.2850001 -0.3168881
vt -0.2850001 -0.06035393
vt 0.2849999 -0.3168881
vt 0.2849999 -0.06035393
vt 0.2850001 -0.07736933
vt 0.2850001 -0.2998735
vt -0.2849999 -0.07736933
vt -0.2849999 -0.2998735
vt -0.2850001 -0.1020915
vt -0.2850001 0.1544428
vt 0.2849999 -0.1020915
vt 0.2849999 0.1544428
vt 0.2850001 0.137428
vt 0.2850001 -0.0850759
vt -0.2849999 0.137428
vt -0.2849999 -0.0850759
vt -0.2850001 0.1126349
vt -0.2850001 0.3691686
vt 0.2849999 0.1126349
vt 0.2849999 0.3691686
vt 0.2850001 0.3521537
vt 0.2850001 0.1296496
vt -0.2849999 0.3521537
vt -0.2849999 0.1296496
vt -0.2850001 0.3266994
vt -0.2850001 0.5832337
vt 0.2849999 0.3266994
vt 0.2849999 0.5832337
vt 0.2850001 0.5662187
vt 0.2850001 0.3437147
vt -0.2849999 0.5662187
vt -0.2849999 0.3437147
vt -0.2850001 0.5395188
vt -0.2850001 0.796053
vt 0.2849999 0.5395188
vt 0.2849999 0.796053
vt 0.2850001 0.7790372
vt 0.2850001 0.5565331
vt -0.2849999 0.7790372
vt -0.2849999 0.5565331
vt -0.2850001 0.7505057
vt -0.2850001 1.00704
vt 0.2849999 0.7505057
vt 0.2849999 1.00704
vt 0.2850001 0.9900249
vt 0.2850001 0.7675208
vt -0.2849999 0.9900249
vt -0.2849999 0.7675208
vt -0.9590856 -0.2850001
vt -1.21562 -0.2850001
vt -0.9590856 0.2849999
vt -1.21562 0.2849999
vt 1.198605 -0.2850001
vt 0.9761004 -0.2850001
vt 1.198605 0.2849999
vt 0.9761004 0.2849999
vt -1.164684 -0.2850001
vt -1.421218 -0.2850001
vt -1.164684 0.2849999
vt -1.421218 0.2849999
vt 1.404203 -0.2850001
vt 1.181699 -0.2850001
vt 1.404203 0.2849999
vt 1.181699 0.2849999
vt -1.366739 -0.2850001
vt -1.623274 -0.2850001
vt -1.366739 0.2849999
vt -1.623274 0.2849999
vt 1.606258 -0.2850001
vt 1.383754 -0.2850001
vt 1.606258 0.2849999
vt 1.383754 0.2849999
vt -1.564695 -0.2850001
vt -1.821229 -0.2850001
vt -1.564695 0.2849999
vt -1.821229 0.2849999
vt 1.804215 -0.2850001
vt 1.581711 -0.2850001
vt 1.804215 0.2849999
vt 1.581711 0.2849999
vt -1.758013 -0.2850001
vt -2.014548 -0.2850001
vt -1.758013 0.2849999
vt -2.014548 0.2849999
vt 1.997533 -0.2850001
vt 1.775029 -0.2850001
vt 1.997533 0.2849999
vt 1.775029 0.2849999
vt -0.2849999 0.6562493
vt -0.2849999 1.306249
vt 0.2850001 0.6562493
vt 0.2850001 1.306249
vt -1.3875 -2.121763
vt -1.380785 -1.865317
vt -0.7375002 -2.121763
vt -0.7316756 -1.899335
vt 1.380785 -1.865317
vt 1.3875 -2.121763
vt 0.7316756 -1.899335
vt 0.7375002 -2.121763
vt -1.360658 -1.609573
vt -0.7142181 -1.677517
vt 1.360658 -1.609573
vt 0.7142181 -1.677517
vt -1.327173 -1.355234
vt -0.6851759 -1.456916
vt 1.327173 -1.355234
vt 0.6851759 -1.456916
vt -1.280424 -1.102995
vt -0.6446276 -1.238138
vt 1.280424 -1.102995
vt 0.6446276 -1.238138
vt -1.220537 -0.8535494
vt -0.5926847 -1.021782
vt 1.220537 -0.8535494
vt 0.5926847 -1.021782
vt -1.147677 -0.6075795
vt -0.5294905 -0.8084404
vt 1.147677 -0.6075795
vt 0.5294905 -0.8084404
vt -1.062044 -0.3657597
vt -0.4552169 -0.598699
vt 1.062044 -0.3657597
vt 0.4552169 -0.598699
vt -0.9638729 -0.1287532
vt -0.3700683 -0.393132
vt 0.9638729 -0.1287532
vt 0.3700683 -0.393132
vt -0.8534322 0.1027906
vt -0.2742779 -0.1923032
vt 0.8534322 0.1027906
vt 0.2742779 -0.1923032
vt -0.7310247 0.3282373
vt -0.168108 0.003237247
vt 0.7310247 0.3282373
vt 0.168108 0.003237247
vt -0.5969858 0.5469687
vt -0.05185008 0.1929531
vt 0.5969858 0.5469687
vt 0.05185008 0.1929531
vt -0.4516835 0.7583849
vt 0.0741775 0.3763247
vt 0.4516835 0.7583849
vt -0.0741775 0.3763247
vt -0.2955153 0.9619071
vt 0.2096295 0.5528488
vt 0.2955153 0.9619071
vt -0.2096295 0.5528488
vt -0.1289098 1.156977
vt 0.3541343 0.7220423
vt 0.1289098 1.156977
vt -0.3541343 0.7220423
vt 0.04767656 1.34306
vt 0.5072961 0.883441
vt -0.04767656 1.34306
vt -0.5072961 0.883441
vt 0.2337599 1.519647
vt 0.668695 1.036603
vt -0.2337599 1.519647
vt -0.668695 1.036603
vt 0.4288297 1.686252
vt 0.837888 1.181108
vt -0.4288297 1.686252
vt -0.837888 1.181108
vt 0.6323519 1.842421
vt 1.014412 1.31656
vt -0.6323519 1.842421
vt -1.014412 1.31656
vt 0.8437684 1.987723
vt 1.197784 1.442587
vt -0.8437684 1.987723
vt -1.197784 1.442587
vt 1.0625 2.121762
vt 1.3875 1.558846
vt -1.0625 2.121762
vt -1.3875 1.558846

vn -0.9996573 0.02617701 0
vn 0.9996573 -0.02617734 0
vn 0 -1 0
vn -0.9969174 0.07845856 0
vn 0.9969174 -0.0784592 0
vn -0.9914449 0.1305263 0
vn 0.9914451 -0.1305245 0
vn -0.9832549 0.1822354 0
vn 0.9832548 -0.1822363 0
vn -0.9723697 0.2334462 0
vn 0.9723696 -0.2334467 0
vn -0.95882 0.2840142 0
vn 0.9588202 -0.2840141 0
vn -0.942641 0.3338083 0
vn 0.9426412 -0.3338078 0
vn -0.9238797 0.3826831 0
vn 0.9238796 -0.3826832 0
vn -0.9025853 0.4305111 0
vn 0.9025854 -0.430511 0
vn -0.8788174 0.4771583 0
vn 0.8788168 -0.4771593 0
vn -0.8526399 0.522499 0
vn 0.8526405 -0.5224982 0
vn -0.8241263 0.5664061 0
vn 0.8241267 -0.5664057 0
vn -0.7933531 0.6087618 0
vn 0.7933527 -0.6087622 0
vn -0.7604065 0.6494474 0
vn 0.7604063 -0.6494477 0
vn -0.7253741 0.6883549 0
vn 0.725374 -0.688355 0
vn -0.6883549 0.725374 0
vn 0.688355 -0.725374 0
vn -0.6494479 0.7604062 0
vn 0.6494482 -0.7604058 0
vn -0.6087618 0.7933531 0
vn 0.6087622 -0.7933527 0
vn -0.5664056 0.8241266 0
vn 0.5664052 -0.824127 0
vn -0.5224986 0.8526402 0
vn 0.5224993 -0.8526398 0
vn 0.8660253 0.5000002 0
vn 0 0 1
vn 0 0 -1

usemtl ProBuilderDefault
f 3/3/1 4/4/1 2/2/1 1/1/1
f 7/7/2 8/8/2 6/6/2 5/5/2
f 1/11/3 6/12/3 8/10/3 3/9/3
f 4/15/4 10/16/4 9/14/4 2/13/4
f 12/19/5 7/20/5 5/18/5 11/17/5
f 10/23/6 14/24/6 13/22/6 9/21/6
f 16/27/7 12/28/7 11/26/7 15/25/7
f 14/31/8 18/32/8 17/30/8 13/29/8
f 20/35/9 16/36/9 15/34/9 19/33/9
f 18/39/10 22/40/10 21/38/10 17/37/10
f 24/43/11 20/44/11 19/42/11 23/41/11
f 22/47/12 26/48/12 25/46/12 21/45/12
f 28/51/13 24/52/13 23/50/13 27/49/13
f 26/55/14 30/56/14 29/54/14 25/53/14
f 32/59/15 28/60/15 27/58/15 31/57/15
f 30/63/16 34/64/16 33/62/16 29/61/16
f 36/67/17 32/68/17 31/66/17 35/65/17
f 34/71/18 38/72/18 37/70/18 33/69/18
f 40/75/19 36/76/19 35/74/19 39/73/19
f 38/79/20 42/80/20 41/78/20 37/77/20
f 44/83/21 40/84/21 39/82/21 43/81/21
f 42/87/22 46/88/22 45/86/22 41/85/22
f 48/91/23 44/92/23 43/90/23 47/89/23
f 46/95/24 50/96/24 49/94/24 45/93/24
f 52/99/25 48/100/25 47/98/25 51/97/25
f 50/103/26 54/104/26 53/102/26 49/101/26
f 56/107/27 52/108/27 51/106/27 55/105/27
f 54/111/28 58/112/28 57/110/28 53/109/28
f 60/115/29 56/116/29 55/114/29 59/113/29
f 58/119/30 62/120/30 61/118/30 57/117/30
f 64/123/31 60/124/31 59/122/31 63/121/31
f 62/127/32 66/128/32 65/126/32 61/125/32
f 68/131/33 64/132/33 63/130/33 67/129/33
f 66/135/34 70/136/34 69/134/34 65/133/34
f 72/139/35 68/140/35 67/138/35 71/137/35
f 70/143/36 74/144/36 73/142/36 69/141/36
f 76/147/37 72/148/37 71/146/37 75/145/37
f 74/151/38 78/152/38 77/150/38 73/149/38
f 80/155/39 76/156/39 75/154/39 79/153/39
f 78/159/40 82/160/40 81/158/40 77/157/40
f 84/163/41 80/164/41 79/162/41 83/161/41
f 83/167/42 81/168/42 82/166/42 84/165/42
f 8/171/43 7/172/43 4/170/43 3/169/43
f 5/175/44 6/176/44 1/174/44 2/173/44
f 7/172/43 12/178/43 10/177/43 4/170/43
f 11/180/44 5/175/44 2/173/44 9/179/44
f 12/178/43 16/182/43 14/181/43 10/177/43
f 15/184/44 11/180/44 9/179/44 13/183/44
f 16/182/43 20/186/43 18/185/43 14/181/43
f 19/188/44 15/184/44 13/183/44 17/187/44
f 20/186/43 24/190/43 22/189/43 18/185/43
f 23/192/44 19/188/44 17/187/44 21/191/44
f 24/190/43 28/194/43 26/193/43 22/189/43
f 27/196/44 23/192/44 21/191/44 25/195/44
f 28/194/43 32/198/43 30/197/43 26/193/43
f 31/200/44 27/196/44 25/195/44 29/199/44
f 32/198/43 36/202/43 34/201/43 30/197/43
f 35/204/44 31/200/44 29/199/44 33/203/44
f 36/202/43 40/206/43 38/205/43 34/201/43
f 39/208/44 35/204/44 33/203/44 37/207/44
f 40/206/43 44/210/43 42/209/43 38/205/43
f 43/212/44 39/208/44 37/207/44 41/211/44
f 44/210/43 48/214/43 46/213/43 42/209/43
f 47/216/44 43/212/44 41/211/44 45/215/44
f 48/214/43 52/218/43 50/217/43 46/213/43
f 51/220/44 47/216/44 45/215/44 49/219/44
f 52/218/43 56/222/43 54/221/43 50/217/43
f 55/224/44 51/220/44 49/219/44 53/223/44
f 56/222/43 60/226/43 58/225/43 54/221/43
f 59/228/44 55/224/44 53/223/44 57/227/44
f 60/226/43 64/230/43 62/229/43 58/225/43
f 63/232/44 59/228/44 57/227/44 61/231/44
f 64/230/43 68/234/43 66/233/43 62/229/43
f 67/236/44 63/232/44 61/231/44 65/235/44
f 68/234/43 72/238/43 70/237/43 66/233/43
f 71/240/44 67/236/44 65/235/44 69/239/44
f 72/238/43 76/242/43 74/241/43 70/237/43
f 75/244/44 71/240/44 69/239/44 73/243/44
f 76/242/43 80/246/43 78/245/43 74/241/43
f 79/248/44 75/244/44 73/243/44 77/247/44
f 80/246/43 84/250/43 82/249/43 78/245/43
f 83/252/44 79/248/44 77/247/44 81/251/44

